<svg width="132" height="181" viewBox="0 0 132 181" fill="none" xmlns="http://www.w3.org/2000/svg">
<path fill-rule="evenodd" clip-rule="evenodd" d="M0 8.46154C0 3.78836 3.78836 0 8.46154 0H82.5C109.838 0 132 22.1619 132 49.5C132 76.8381 109.838 99 82.5 99H74.8019L122.611 166.898C126.559 172.504 122.549 180.231 115.693 180.231H44V101.962C44 101.261 43.4317 100.692 42.7308 100.692C42.0298 100.692 41.4615 101.261 41.4615 101.962V180.231H39.7691L39.748 180.231H8.46154C3.78836 180.231 0 176.442 0 171.769V8.46154ZM27.9229 26.2308C27.9229 24.8288 29.0594 23.6923 30.4613 23.6923C31.8633 23.6923 32.9998 24.8288 32.9998 26.2308V34.6923C32.9998 36.0943 31.8633 37.2308 30.4613 37.2308C29.0594 37.2308 27.9229 36.0943 27.9229 34.6923V26.2308ZM44.8462 23.6923C43.4442 23.6923 42.3077 24.8288 42.3077 26.2308V34.6923C42.3077 36.0943 43.4442 37.2308 44.8462 37.2308C46.2481 37.2308 47.3846 36.0943 47.3846 34.6923V26.2308C47.3846 24.8288 46.2481 23.6923 44.8462 23.6923Z" fill="#333333"/>
<rect x="22" y="16.0769" width="39.7692" height="33" fill="#333333"/>
<rect x="22" y="95.6154" width="39.7692" height="84.6154" fill="#333333"/>
</svg>
