<svg width="73" height="212" viewBox="0 0 73 212" fill="none" xmlns="http://www.w3.org/2000/svg">
<path fill-rule="evenodd" clip-rule="evenodd" d="M10 0C4.47715 0 0 4.47715 0 10V202C0 207.523 4.47715 212 10 212H63C68.5229 212 73 207.523 73 202V10C73 4.47715 68.5229 0 63 0H30V40.9999L24 30.2768L18 40.9999V0H10ZM18 40.9999H30V41H18V40.9999ZM42.5 27C41.1193 27 40 28.1193 40 29.5V38.5C40 39.8807 41.1193 41 42.5 41C43.8807 41 45 39.8807 45 38.5V29.5C45 28.1193 43.8807 27 42.5 27ZM54 29.5C54 28.1193 55.1193 27 56.5 27C57.8807 27 59 28.1193 59 29.5V38.5C59 39.8807 57.8807 41 56.5 41C55.1193 41 54 39.8807 54 38.5V29.5Z" fill="#333333"/>
</svg>
