<svg width="89" height="120" viewBox="0 0 89 120" fill="none" xmlns="http://www.w3.org/2000/svg">
<mask id="path-1-inside-1_1374_7866" fill="white">
<path fill-rule="evenodd" clip-rule="evenodd" d="M10 0H53.6618C71.9497 0 86.775 14.8253 86.775 33.1132C86.775 51.4011 71.9497 66.2264 53.6618 66.2264H51.4531L78.0202 104.275C82.6487 110.904 77.906 120 69.8211 120H10C4.47715 120 0 115.523 0 110V10C0 4.47715 4.47715 0 10 0ZM28.6469 65.6604C28.1861 65.6604 27.8126 66.0339 27.8126 66.4947V120H29.4813V66.4947C29.4813 66.0339 29.1077 65.6604 28.6469 65.6604ZM18.3563 17.5178C18.3563 16.5962 19.1034 15.8491 20.025 15.8491C20.9466 15.8491 21.6938 16.5962 21.6938 17.5178V23.2369C21.6938 24.1585 20.9466 24.9057 20.025 24.9057C19.1034 24.9057 18.3563 24.1585 18.3563 23.2369V17.5178ZM29.4813 15.8491C28.5597 15.8491 27.8126 16.5962 27.8126 17.5178V23.2369C27.8126 24.1585 28.5597 24.9057 29.4813 24.9057C30.4029 24.9057 31.1501 24.1585 31.1501 23.2369V17.5178C31.1501 16.5962 30.4029 15.8491 29.4813 15.8491Z"/>
</mask>
<path fill-rule="evenodd" clip-rule="evenodd" d="M10 0H53.6618C71.9497 0 86.775 14.8253 86.775 33.1132C86.775 51.4011 71.9497 66.2264 53.6618 66.2264H51.4531L78.0202 104.275C82.6487 110.904 77.906 120 69.8211 120H10C4.47715 120 0 115.523 0 110V10C0 4.47715 4.47715 0 10 0ZM28.6469 65.6604C28.1861 65.6604 27.8126 66.0339 27.8126 66.4947V120H29.4813V66.4947C29.4813 66.0339 29.1077 65.6604 28.6469 65.6604ZM18.3563 17.5178C18.3563 16.5962 19.1034 15.8491 20.025 15.8491C20.9466 15.8491 21.6938 16.5962 21.6938 17.5178V23.2369C21.6938 24.1585 20.9466 24.9057 20.025 24.9057C19.1034 24.9057 18.3563 24.1585 18.3563 23.2369V17.5178ZM29.4813 15.8491C28.5597 15.8491 27.8126 16.5962 27.8126 17.5178V23.2369C27.8126 24.1585 28.5597 24.9057 29.4813 24.9057C30.4029 24.9057 31.1501 24.1585 31.1501 23.2369V17.5178C31.1501 16.5962 30.4029 15.8491 29.4813 15.8491Z" fill="#D9D9D9"/>
<path d="M51.4531 66.2264V62.2264H43.7816L48.1735 68.5164L51.4531 66.2264ZM78.0202 104.275L81.2999 101.985L81.2999 101.985L78.0202 104.275ZM27.8126 120H23.8126V124H27.8126V120ZM29.4813 120V124H33.4813V120H29.4813ZM53.6618 -4H10V4H53.6618V-4ZM90.775 33.1132C90.775 12.6161 74.1588 -4 53.6618 -4V4C69.7405 4 82.775 17.0344 82.775 33.1132H90.775ZM53.6618 70.2264C74.1589 70.2264 90.775 53.6103 90.775 33.1132H82.775C82.775 49.192 69.7406 62.2264 53.6618 62.2264V70.2264ZM51.4531 70.2264H53.6618V62.2264H51.4531V70.2264ZM81.2999 101.985L54.7328 63.9364L48.1735 68.5164L74.7406 106.565L81.2999 101.985ZM69.8211 124C81.1399 124 87.7798 111.265 81.2999 101.985L74.7406 106.565C77.5177 110.542 74.672 116 69.8211 116V124ZM10 124H69.8211V116H10V124ZM-4 110C-4 117.732 2.26801 124 10 124V116C6.68629 116 4 113.314 4 110H-4ZM-4 10V110H4V10H-4ZM10 -4C2.26801 -4 -4 2.26801 -4 10H4C4 6.68629 6.68629 4 10 4V-4ZM31.8126 66.4947C31.8126 68.2431 30.3953 69.6604 28.6469 69.6604V61.6604C25.977 61.6604 23.8126 63.8248 23.8126 66.4947H31.8126ZM31.8126 120V66.4947H23.8126V120H31.8126ZM29.4813 116H27.8126V124H29.4813V116ZM25.4813 66.4947V120H33.4813V66.4947H25.4813ZM28.6469 69.6604C26.8986 69.6604 25.4813 68.2431 25.4813 66.4947H33.4813C33.4813 63.8248 31.3169 61.6604 28.6469 61.6604V69.6604ZM20.025 11.8491C16.8942 11.8491 14.3563 14.387 14.3563 17.5178H22.3563C22.3563 18.8053 21.3125 19.8491 20.025 19.8491V11.8491ZM25.6938 17.5178C25.6938 14.3871 23.1558 11.8491 20.025 11.8491V19.8491C18.7375 19.8491 17.6938 18.8053 17.6938 17.5178H25.6938ZM25.6938 23.2369V17.5178H17.6938V23.2369H25.6938ZM20.025 28.9057C23.1558 28.9057 25.6938 26.3677 25.6938 23.2369H17.6938C17.6938 21.9494 18.7375 20.9057 20.025 20.9057V28.9057ZM14.3563 23.2369C14.3563 26.3677 16.8942 28.9057 20.025 28.9057V20.9057C21.3125 20.9057 22.3563 21.9494 22.3563 23.2369H14.3563ZM14.3563 17.5178V23.2369H22.3563V17.5178H14.3563ZM31.8126 17.5178C31.8126 18.8053 30.7688 19.8491 29.4813 19.8491V11.8491C26.3505 11.8491 23.8126 14.387 23.8126 17.5178H31.8126ZM31.8126 23.2369V17.5178H23.8126V23.2369H31.8126ZM29.4813 20.9057C30.7688 20.9057 31.8126 21.9494 31.8126 23.2369H23.8126C23.8126 26.3677 26.3505 28.9057 29.4813 28.9057V20.9057ZM27.1501 23.2369C27.1501 21.9494 28.1938 20.9057 29.4813 20.9057V28.9057C32.6121 28.9057 35.1501 26.3677 35.1501 23.2369H27.1501ZM27.1501 17.5178V23.2369H35.1501V17.5178H27.1501ZM29.4813 19.8491C28.1938 19.8491 27.1501 18.8053 27.1501 17.5178H35.1501C35.1501 14.3871 32.6121 11.8491 29.4813 11.8491V19.8491Z" fill="#D9D9D9" mask="url(#path-1-inside-1_1374_7866)"/>
</svg>
