<svg width="156" height="213" viewBox="0 0 156 213" fill="none" xmlns="http://www.w3.org/2000/svg">
<path fill-rule="evenodd" clip-rule="evenodd" d="M0 10C0 4.47715 4.47715 0 10 0H97.5C129.809 0 156 26.1913 156 58.5C156 90.8087 129.809 117 97.5 117H88.4023L144.904 197.243C149.57 203.868 144.831 213 136.728 213H52V120.5C52 119.672 51.3284 119 50.5 119C49.6716 119 49 119.672 49 120.5V213H46.9999L46.9749 213H10C4.47715 213 0 208.523 0 203V10ZM32.9998 31C32.9998 29.3431 34.3429 28 35.9998 28C37.6566 28 38.9998 29.3431 38.9998 31V41C38.9998 42.6569 37.6566 44 35.9998 44C34.3429 44 32.9998 42.6569 32.9998 41V31ZM53 28C51.3431 28 50 29.3431 50 31V41C50 42.6569 51.3431 44 53 44C54.6569 44 56 42.6569 56 41V31C56 29.3431 54.6569 28 53 28Z" fill="#333333"/>
</svg>
