<svg width="107" height="108" viewBox="0 0 107 108" fill="none" xmlns="http://www.w3.org/2000/svg">
<circle cx="53.1115" cy="54.071" r="53.1115" fill="#333333"/>
<path d="M61.7734 55.2148H57.8989L60.143 58.3732L79.858 86.1202C80.7989 87.4444 79.8521 89.2786 78.2276 89.2786H32.606C31.5014 89.2786 30.606 88.3832 30.606 87.2786V18.7585C30.606 17.9322 31.2758 17.2625 32.102 17.2625H63.5662C74.0465 17.2625 82.5424 25.7584 82.5424 36.2386C82.5424 46.7188 74.0465 55.2148 63.5662 55.2148H61.7734Z" fill="white" stroke="white" stroke-width="4"/>
<rect x="46.5344" y="56.8562" width="1.0757" height="34.4224" rx="0.53785" fill="#333333"/>
<rect x="40.4385" y="25.3018" width="2.1514" height="5.73707" rx="1.0757" fill="#333333"/>
<rect x="46.5344" y="25.3018" width="2.1514" height="5.73707" rx="1.0757" fill="#333333"/>
</svg>
