<svg width="107" height="108" viewBox="0 0 107 108" fill="none" xmlns="http://www.w3.org/2000/svg">
<circle cx="53.3258" cy="54.0714" r="53.1119" fill="#333333"/>
<path d="M27.6262 16.2393C27.6262 13.4778 29.8648 11.2393 32.6262 11.2393H52.2036C54.965 11.2393 57.2036 13.4778 57.2036 16.2393V92.1351C57.2036 94.8965 54.965 97.1351 52.2036 97.1351H32.6262C29.8648 97.1351 27.6262 94.8965 27.6262 92.1351V16.2393Z" fill="white"/>
<path d="M46.2637 11.2393H72.9702C80.1499 11.2393 85.9702 17.0596 85.9702 24.2393V51.7216C85.9702 58.9013 80.1499 64.7216 72.9702 64.7216H46.2637V11.2393Z" fill="white"/>
<rect x="72.6001" y="46.0837" width="2.02584" height="5.67237" rx="1.01292" fill="#333333"/>
<rect x="78.2722" y="46.0837" width="2.02584" height="5.67237" rx="1.01292" fill="#333333"/>
<rect x="57.2034" y="41.2217" width="0.810338" height="30.3877" rx="0.405169" transform="rotate(-90 57.2034 41.2217)" fill="#333333"/>
<rect x="41.4019" y="21.7734" width="34.8445" height="11.7499" rx="5" fill="#333333"/>
</svg>
