<svg width="144" height="212" viewBox="0 0 144 212" fill="none" xmlns="http://www.w3.org/2000/svg">
<path fill-rule="evenodd" clip-rule="evenodd" d="M10 0C4.47715 0 0 4.47715 0 10V202C0 207.523 4.47715 212 10 212H63C68.5229 212 73 207.523 73 202V132H124C135.046 132 144 123.046 144 112V74H74C73.4477 74 73 73.5523 73 73C73 72.4477 73.4477 72 74 72H144V20C144 8.95431 135.046 0 124 0H63H46H10ZM111 88.5C111 87.1193 112.119 86 113.5 86C114.881 86 116 87.1193 116 88.5V97.5C116 98.8807 114.881 100 113.5 100C112.119 100 111 98.8807 111 97.5V88.5ZM127.5 86C126.119 86 125 87.1193 125 88.5V97.5C125 98.8807 126.119 100 127.5 100C128.881 100 130 98.8807 130 97.5V88.5C130 87.1193 128.881 86 127.5 86ZM39 26C36.2386 26 34 28.2386 34 31V50C34 52.7614 36.2386 55 39 55H115C117.761 55 120 52.7614 120 50V31C120 28.2386 117.761 26 115 26H39Z" fill="#333333"/>
</svg>
