<svg width="107" height="108" viewBox="0 0 107 108" fill="none" xmlns="http://www.w3.org/2000/svg">
<circle cx="53.6467" cy="54.071" r="53.1115" fill="#333333"/>
<path fill-rule="evenodd" clip-rule="evenodd" d="M54.2092 32.4818C54.931 32.1745 55.4333 31.0516 56.438 28.8058L59.8307 21.2222H84.7577C86.9669 21.2222 88.7577 23.013 88.7577 25.2222V80.1627C88.7577 82.3718 86.9669 84.1627 84.7577 84.1627H22.4141C20.2049 84.1627 18.4141 82.3718 18.4141 80.1627V25.2222C18.4141 23.013 20.2049 21.2222 22.4141 21.2222H47.0207L50.4134 28.8058C51.4181 31.0516 51.9204 32.1745 52.6422 32.4818C53.1428 32.6949 53.7086 32.6949 54.2092 32.4818Z" fill="white"/>
<rect x="53.0811" y="57.6328" width="0.673145" height="28.6087" rx="0.336573" fill="#333333"/>
<rect x="50.0518" y="41.1404" width="1.68286" height="4.71202" rx="0.841431" fill="#333333"/>
<rect x="54.7637" y="41.1404" width="1.68286" height="4.71202" rx="0.841431" fill="#333333"/>
<path d="M89 23.0833V23.0833C88.6487 20.7365 86.6329 19 84.2598 19L75.1532 19L62.9366 19C60.9973 19 59.2329 20.1214 58.4096 21.8773L55.1893 28.7453C54.4408 30.3417 52.1427 30.2588 51.5112 28.6126L49.0546 22.2091C48.313 20.276 46.4568 19 44.3863 19H29.4306H22.1246C19.9475 19 18.2749 20.928 18.5822 23.0833V23.0833" stroke="#A0A0A0" stroke-linecap="round"/>
<path d="M89 25.375V25.375C88.6495 22.8665 86.504 21 83.9712 21L75.1532 21L62.9691 21C61.0131 21 59.2367 22.1406 58.4227 23.9192L54.9921 31.4147C54.2384 33.0616 51.8588 32.9386 51.2788 31.2228L48.9723 24.399C48.2857 22.3674 46.38 21 44.2356 21H29.4306H22.4136C20.0764 21 18.2739 23.0582 18.5822 25.375V25.375" stroke="#D9D9D9" stroke-linecap="round"/>
</svg>
