<svg width="390" height="219" viewBox="0 0 390 219" fill="none" xmlns="http://www.w3.org/2000/svg">
<rect x="96" y="4" width="53.3726" height="155" rx="10" fill="#24D8AD"/>
<rect x="125.245" y="23.7405" width="3.65566" height="10.2358" rx="1.82783" fill="white"/>
<rect x="135.481" y="23.7405" width="3.65566" height="10.2358" rx="1.82783" fill="white"/>
<path fill-rule="evenodd" clip-rule="evenodd" d="M117.934 4H109.16V33.9764H117.934V33.9763H109.16L113.547 26.1363L117.934 33.9763V4Z" fill="white"/>
<circle cx="15.0898" cy="65.952" r="25.1511" transform="rotate(13.1695 15.0898 65.952)" fill="#383838"/>
<circle cx="82.2094" cy="81.6571" r="25.1511" transform="rotate(13.1695 82.2094 81.6571)" fill="#383838"/>
<path d="M17.337 50.658C23.6148 38.3788 37.4553 31.9613 50.8835 35.1033L59.1407 37.0354C72.0686 40.0603 81.4706 51.2232 82.2535 64.4772L88.2428 165.86C88.6372 172.536 82.4938 177.711 75.9819 176.187L-21.2747 153.43C-27.6004 151.95 -30.8575 144.926 -27.9002 139.141L17.337 50.658Z" fill="#D52454"/>
<rect x="39.4462" y="107.686" width="1.86304" height="59.6174" rx="0.931521" transform="rotate(13.1695 39.4462 107.686)" fill="white"/>
<rect x="43.5865" y="62.7341" width="3.72609" height="9.93623" rx="1.86304" transform="rotate(13.1695 43.5865 62.7341)" fill="white"/>
<rect x="53.8661" y="65.1394" width="3.72609" height="9.93623" rx="1.86304" transform="rotate(13.1695 53.8661 65.1394)" fill="white"/>
<path fill-rule="evenodd" clip-rule="evenodd" d="M84.033 61.4422C83.9935 64.5491 85.8651 67.5245 88.8906 68.2324C92.2291 69.0136 95.5488 66.7345 95.4868 63.3064C95.1222 43.1463 80.4667 24.8052 59.0431 19.7923C37.4748 14.7456 16.0606 24.849 6.89028 42.9833C5.44195 45.8474 7.27875 49.1364 10.4038 49.8676C13.2358 50.5303 16.044 48.815 17.2718 46.1783C23.8624 32.0252 40.2483 24.0313 56.7549 27.8936C73.1359 31.7266 84.2298 45.9712 84.033 61.4422Z" fill="#383838"/>
<path d="M19.0253 42.3179L-2.6507 83.1667" stroke="#E1E1E1" stroke-width="2" stroke-linecap="round"/>
<path d="M87.8003 105.227L84.368 57.9445" stroke="#E1E1E1" stroke-width="2" stroke-linecap="round"/>
<path fill-rule="evenodd" clip-rule="evenodd" d="M344.504 78.574C346.137 77.7249 347.141 75.2546 349.148 70.314L354.962 56.0023C356.019 53.4009 356.763 51.5683 357.095 50.1603L389.992 46.8699C400.983 45.7706 410.784 53.7893 411.883 64.7801L420.369 149.623C421.469 160.614 413.45 170.415 402.459 171.514L302.956 181.466C291.965 182.566 282.164 174.547 281.064 163.556L272.578 78.7134C271.479 67.7226 279.498 57.9216 290.489 56.8223L322.846 53.5859C323.45 54.9003 324.543 56.5491 326.094 58.8897L334.627 71.7663L334.628 71.7664C337.573 76.2115 339.046 78.4341 340.815 78.943C342.047 79.2973 343.367 79.1652 344.504 78.574Z" fill="#FFCC00"/>
<path d="M410.674 52.6912V52.6912C410.139 47.3385 405.366 43.4333 400.013 43.9687L383.018 45.6685L359.325 48.0383C357.483 48.2225 355.894 49.4094 355.194 51.1231L344.023 78.4756C343.412 79.9727 341.369 80.1629 340.492 78.8044L324.631 54.2412C323.613 52.6654 321.799 51.7917 319.933 51.9784L296.019 54.3702L280.092 55.9632C274.739 56.4986 270.834 61.2719 271.369 66.6246V66.6246" stroke="#EFB12A" stroke-width="2" stroke-linecap="round"/>
<path d="M410.274 48.692V48.692C409.739 43.3393 404.966 39.434 399.613 39.9694L382.618 41.6693L358.925 44.039C357.083 44.2233 355.494 45.4101 354.794 47.1238L343.623 74.4764C343.012 75.9735 340.969 76.1636 340.092 74.8051L324.23 50.242C323.213 48.6661 321.399 47.7924 319.532 47.9791L295.619 50.3709L279.692 51.964C274.339 52.4993 270.434 57.2726 270.969 62.6253V62.6253" stroke="#EFB12A" stroke-width="2" stroke-linecap="round"/>
<rect x="346.453" y="124.051" width="1.33971" height="56.9378" rx="0.669856" transform="rotate(-5.71174 346.453 124.051)" fill="white"/>
<rect x="337.187" y="91.9907" width="3.34928" height="9.37799" rx="1.67464" transform="rotate(-5.71174 337.187 91.9907)" fill="white"/>
<rect x="346.519" y="91.0574" width="3.34928" height="9.37799" rx="1.67464" transform="rotate(-5.71174 346.519 91.0574)" fill="white"/>
<rect x="217.819" width="52.6789" height="152.985" rx="10" transform="rotate(7.44352 217.819 0)" fill="#9441FF"/>
<path d="M250.734 4.30029L301.027 10.871C311.979 12.3019 319.698 22.3408 318.267 33.2934L311.109 88.0827C309.678 99.0353 299.639 106.754 288.686 105.323L238.394 98.7526L250.734 4.30029Z" fill="#9441FF"/>
<rect x="289.205" y="71.9141" width="3.60814" height="10.1028" rx="1.80407" transform="rotate(7.44352 289.205 71.9141)" fill="white"/>
<rect x="299.223" y="73.2227" width="3.60814" height="10.1028" rx="1.80407" transform="rotate(7.44352 299.223 73.2227)" fill="white"/>
<rect x="263.136" y="59.7751" width="1.44326" height="54.1222" rx="0.721629" transform="rotate(-82.5565 263.136 59.7751)" fill="white"/>
<rect x="239.717" y="21.7827" width="62.0601" height="20.9272" rx="5" transform="rotate(7.44352 239.717 21.7827)" fill="white"/>
<path d="M204.75 149.9H200.876L203.12 153.058L239.149 203.766C242.913 209.063 239.125 216.4 232.628 216.4H150C145.582 216.4 142 212.818 142 208.4V80C142 75.5817 145.582 72 150 72H208.25C229.761 72 247.2 89.4385 247.2 110.95C247.2 132.461 229.761 149.9 208.25 149.9H204.75Z" fill="#007AFF" stroke="#007AFF" stroke-width="4"/>
<rect x="175" y="151.2" width="2.1" height="67.2" rx="1.05" fill="white"/>
<rect x="163.1" y="89.5999" width="4.2" height="11.2" rx="2.1" fill="white"/>
<rect x="175" y="89.5999" width="4.2" height="11.2" rx="2.1" fill="white"/>
</svg>
